REM DIRINDEX 1\2,1\3
REM DIRNAME folder01,folder02,folder03
TITLE ""
FILE "DISC1Track26.mp3" MP3
  TRACK 01 AUDIO
    TITLE "0:"
    INDEX 01 00:00:00
  TRACK 02 AUDIO
    TITLE "3:cjc133_1152"
    INDEX 01 00:00:17
  TRACK 03 AUDIO
    TITLE "0:"
    INDEX 01 00:01:44
  TRACK 04 AUDIO
    TITLE "2:cjc133_1153"
    INDEX 01 00:02:16
  TRACK 05 AUDIO
    TITLE "2:cjc133_1154"
    INDEX 01 00:05:57
  TRACK 06 AUDIO
    TITLE "2:cjc133_1155"
    INDEX 01 00:08:60
  TRACK 07 AUDIO
    TITLE "0:"
    INDEX 01 00:11:11
  TRACK 08 AUDIO
    TITLE "2:cjc133_1156"
    INDEX 01 00:11:52
  TRACK 09 AUDIO
    TITLE "2:cjc133_1157"
    INDEX 01 00:13:00
  TRACK 10 AUDIO
    TITLE "2:cjc133_1158"
    INDEX 01 00:16:22
  TRACK 11 AUDIO
    TITLE "0:"
    INDEX 01 00:18:44
  TRACK 12 AUDIO
    TITLE "2:cjc133_1159"
    INDEX 01 00:19:18
  TRACK 13 AUDIO
    TITLE "2:cjc133_1160"
    INDEX 01 00:20:20
  TRACK 14 AUDIO
    TITLE "2:cjc133_1161"
    INDEX 01 00:24:06
  TRACK 15 AUDIO
    TITLE "0:"
    INDEX 01 00:26:71
  TRACK 16 AUDIO
    TITLE "2:cjc133_1162"
    INDEX 01 00:27:45
  TRACK 17 AUDIO
    TITLE "2:cjc133_1163"
    INDEX 01 00:28:45
  TRACK 18 AUDIO
    TITLE "2:cjc133_1164"
    INDEX 01 00:32:19
  TRACK 19 AUDIO
    TITLE "0:"
    INDEX 01 00:34:73
  TRACK 20 AUDIO
    TITLE "2:cjc133_1165"
    INDEX 01 00:35:39
  TRACK 21 AUDIO
    TITLE "2:cjc133_1166"
    INDEX 01 00:36:40
  TRACK 22 AUDIO
    TITLE "2:cjc133_1167"
    INDEX 01 00:40:01
  TRACK 23 AUDIO
    TITLE "0:"
    INDEX 01 00:42:47
  TRACK 24 AUDIO
    TITLE "2:cjc133_1168"
    INDEX 01 00:43:23
  TRACK 25 AUDIO
    TITLE "2:cjc133_1169"
    INDEX 01 00:46:19
  TRACK 26 AUDIO
    TITLE "2:cjc133_1170"
    INDEX 01 00:49:31
  TRACK 27 AUDIO
    TITLE "0:"
    INDEX 01 00:51:52
  TRACK 28 AUDIO
    TITLE "2:cjc133_1171"
    INDEX 01 00:52:24
  TRACK 29 AUDIO
    TITLE "2:cjc133_1172"
    INDEX 01 00:53:27
  TRACK 30 AUDIO
    TITLE "2:cjc133_1173"
    INDEX 01 00:56:39
  TRACK 31 AUDIO
    TITLE "0:"
    INDEX 01 00:58:54
  TRACK 32 AUDIO
    TITLE "2:cjc133_1174"
    INDEX 01 00:59:26
  TRACK 33 AUDIO
    TITLE "2:cjc133_1175"
    INDEX 01 01:00:74
  TRACK 34 AUDIO
    TITLE "2:cjc133_1176"
    INDEX 01 01:04:33
  TRACK 35 AUDIO
    TITLE "0:"
    INDEX 01 01:07:06
  TRACK 36 AUDIO
    TITLE "2:cjc133_1177"
    INDEX 01 01:07:61
  TRACK 37 AUDIO
    TITLE "2:cjc133_1178"
    INDEX 01 01:09:18
  TRACK 38 AUDIO
    TITLE "2:cjc133_1179"
    INDEX 01 01:12:52
  TRACK 39 AUDIO
    TITLE "0:"
    INDEX 01 01:15:25
  TRACK 40 AUDIO
    TITLE "2:cjc133_1180"
    INDEX 01 01:16:03
  TRACK 41 AUDIO
    TITLE "2:cjc133_1181"
    INDEX 01 01:17:24
  TRACK 42 AUDIO
    TITLE "2:cjc133_1182"
    INDEX 01 01:20:61
  TRACK 43 AUDIO
    TITLE "0:"
    INDEX 01 01:23:42
  TRACK 44 AUDIO
    TITLE "2:cjc133_1183"
    INDEX 01 01:24:14
  TRACK 45 AUDIO
    TITLE "2:cjc133_1184"
    INDEX 01 01:26:58
  TRACK 46 AUDIO
    TITLE "2:cjc133_1185"
    INDEX 01 01:30:13
  TRACK 47 AUDIO
    TITLE "0:"
    INDEX 01 01:32:49
  TRACK 48 AUDIO
    TITLE "2:cjc133_1186"
    INDEX 01 01:33:27
  TRACK 49 AUDIO
    TITLE "2:cjc133_1187"
    INDEX 01 01:37:30
  TRACK 50 AUDIO
    TITLE "2:cjc133_1188"
    INDEX 01 01:41:26
  TRACK 51 AUDIO
    TITLE "0:"
    INDEX 01 01:44:26
  TRACK 52 AUDIO
    TITLE "2:cjc133_1189"
    INDEX 01 01:45:04
  TRACK 53 AUDIO
    TITLE "2:cjc133_1190"
    INDEX 01 01:48:03
  TRACK 54 AUDIO
    TITLE "2:cjc133_1191"
    INDEX 01 01:52:38
  TRACK 55 AUDIO
    TITLE "0:"
    INDEX 01 01:56:06
  TRACK 56 AUDIO
    TITLE "2:cjc133_1192"
    INDEX 01 01:56:47
  TRACK 57 AUDIO
    TITLE "2:cjc133_1193"
    INDEX 01 01:58:29
  TRACK 58 AUDIO
    TITLE "2:cjc133_1194"
    INDEX 01 02:02:52
  TRACK 59 AUDIO
    TITLE "0:"
    INDEX 01 02:06:12
  TRACK 60 AUDIO
    TITLE "2:cjc133_1195"
    INDEX 01 02:06:54
  TRACK 61 AUDIO
    TITLE "2:cjc133_1196"
    INDEX 01 02:07:63
  TRACK 62 AUDIO
    TITLE "2:cjc133_1197"
    INDEX 01 02:11:61
  TRACK 63 AUDIO
    TITLE "0:"
    INDEX 01 02:14:69
